<svg xmlns="http://www.w3.org/2000/svg" width="256" height="256" viewBox="0 0 256 256">
  <circle cx="128" cy="128" r="120" fill="#0ea5e9" />
  <path d="M128,20a108,108,0,1,1-76.36,31.64A107.31,107.31,0,0,1,128,20m0-20A128,128,0,1,0,256,128,128,128,0,0,0,128,0Z" fill="#0284c7" />
  <circle cx="128" cy="128" r="48" fill="white" />
  <path d="M128,88a40,40,0,1,1-28.28,11.72A39.77,39.77,0,0,1,128,88m0-8a48,48,0,1,0,48,48,48,48,0,0,0-48-48Z" fill="#0284c7" />
  <polygon points="128 80 140 116 180 116 148 138 160 174 128 152 96 174 108 138 76 116 116 116 128 80" fill="#0ea5e9" />
</svg>